<?xml version="1.0" encoding="utf-8"?>
<!-- Generator: Adobe Illustrator 25.2.1, SVG Export Plug-In . SVG Version: 6.00 Build 0)  -->
<svg version="1.1" xmlns="http://www.w3.org/2000/svg" xmlns:xlink="http://www.w3.org/1999/xlink" x="0px" y="0px"
	 width="595.276px" height="595.276px" viewBox="0 0 595.276 595.276" enable-background="new 0 0 595.276 595.276"
	 xml:space="preserve">
<g id="Layer_1" display="none">
	<rect y="-123.307" display="inline" fill="#E81F64" width="91.529" height="86"/>
	<rect x="91.529" y="-123.307" display="inline" fill="#C21E5C" width="87.843" height="86"/>
	<rect x="179.371" y="-123.307" display="inline" fill="#603B97" width="87.843" height="86"/>
	<rect x="267.214" y="-123.307" display="inline" fill="#9E82BC" width="87.843" height="86"/>
	<rect y="8.026" fill="#9E82BC" width="595.276" height="540"/>
</g>
<g id="Layer_2">
	<g>
		<g>
			<path fill="#692E91" d="M388.518,172.753c2.475,3.683,0.304,7.724-4.897,9.108c-7.759,2.065-15.362,6.886-17.667,12.168
				c-0.872,1.998-0.413,4.086-0.381,6.14c0.09,5.798-3.633,11.818-10.972,15.61c-7.339,3.792-18.409,4.931-26.535,2.092
				c-2.963-1.035-5.658-2.577-9.09-2.751c-2.266-0.115,13.029-5.981,10.987-4.996c-8.995,4.34-35.979,2.745-39.097-2.371
				c-4.889-8.023,15.197-11.282,15.197-11.282c4.944-1.056-2.216,4.778,5.173,1.89c5.373-2.1,3.219-15.398,4.266-19.414
				c1.047-4.016,2.672-8.46,8.14-10.83c7.214-3.127,17.713-1.152,25.185-4.037c4.117-1.589,6.532-4.361,9.612-6.673
				c3.272-2.456,7.538-4.493,12.446-5.438c4.908-0.945,10.476-0.706,14.683,0.993c2.117,0.855,3.834,2.044,5.161,3.369
				C395.667,161.258,394.733,168.198,388.518,172.753"/>
		</g>
		<g opacity="0.56">
			<path fill="#FFFFFF" d="M389.701,163.435c0.866,1.779,0.757,3.672-0.317,5.472c-0.266,0.445-0.642,0.918-1.49,1.189
				c-0.454,0.145-0.998,0.216-1.53,0.282c-0.783,0.097-1.627,0.188-2.369,0.067c-0.447-0.073-0.812-0.217-1.117-0.378
				c-0.785-0.415-1.215-0.949-1.401-1.495c-0.186-0.546-0.143-1.107-0.07-1.664c0.171-1.297,0.52-2.621,1.745-3.823
				c0.294-0.289,0.645-0.573,1.155-0.797c0.789-0.346,1.941-0.517,2.999-0.444c0.282,0.019,0.566,0.057,0.778,0.139
				C388.391,162.103,389.578,162.253,389.701,163.435"/>
		</g>
		<g opacity="0.56">
			<path fill="#FFFFFF" d="M385.106,173.42c0.558,0.972,0.481,2.009-0.221,2.998c-0.174,0.244-0.42,0.505-0.972,0.656
				c-0.296,0.081-0.649,0.121-0.995,0.159c-0.509,0.055-1.058,0.108-1.54,0.043c-0.29-0.039-0.527-0.117-0.725-0.204
				c-0.509-0.225-0.787-0.517-0.906-0.815c-0.12-0.299-0.09-0.606-0.041-0.911c0.115-0.711,0.345-1.437,1.145-2.099
				c0.192-0.159,0.421-0.316,0.753-0.44c0.514-0.192,1.263-0.288,1.95-0.252c0.184,0.01,0.368,0.03,0.505,0.074
				C384.259,172.693,385.03,172.772,385.106,173.42"/>
		</g>
	</g>
	<g>
		<path fill="#546EB5" d="M337.667,191.896c0,0-10.471-38.811,21.019-49.146C358.686,142.75,371.94,179.236,337.667,191.896z"/>
		<path opacity="0.4" fill="#FFFFFF" d="M355.621,148.748c0,0,0.994,23.648-16.132,35.802
			C339.488,184.55,352.398,167.362,355.621,148.748z"/>
		<path opacity="0.4" fill="#FFFFFF" d="M358.223,163.617c0.589,0.317,0.706,13.172-12.697,20.425c0,0-0.332-2.105,1.245-3.057
			C351.034,178.413,356.242,170.401,358.223,163.617z"/>
		<path opacity="0.47" fill="#FFFFFF" d="M347.857,151.683c0,0-7.285,11.212-8.377,22.113"/>
	</g>
	<g>
		<path fill="#2B3990" d="M385.397,362.818c0,0,65.747-7.215,49.258-83.557C434.654,279.262,367.289,306.914,385.397,362.818z"/>
		<path opacity="0.72" fill="#11113E" d="M430.232,287.323c0,0-30.22,17.313-37.346,60.901l-7.649-1.98
			C385.237,346.244,398.746,296.679,430.232,287.323z"/>
	</g>
	<g>
		<path fill="#1C75BC" d="M341.674,272.116c0,0,2.444-41.657-47.561-41.954C294.113,230.162,304.216,275.298,341.674,272.116z"/>
		<path opacity="0.5" fill="#FFFFFF" d="M329.963,255.454c0,0-8.264-17.393-32.383-21.799
			C297.58,233.655,318.209,240.645,329.963,255.454z"/>
	</g>
	<path fill="#362151" d="M331.256,375.138c-30.134-5.308-60.009-5.617-89.598-0.407c-24.175,4.257-44.206,21.169-52.547,44.255
		l-19.389,53.666h-54.046l134.213-369.087c4.598-12.643,16.613-21.06,30.067-21.06h14.265c13.468,0,25.494,8.435,30.081,21.098
		l133.26,367.925l-53.584-0.095l-18.947-51.072C376.497,396.747,355.984,379.494,331.256,375.138z M357.757,343.73L286.822,145.56
		L215.886,343.73C261.016,331.167,308.552,332.594,357.757,343.73z"/>
	<path display="none" fill="#0D4F2E" d="M407.622,366.248c0,0,19.2,12.798,26.104,36.621c6.904,23.823-2.665,14.037-2.665,14.037
		s-4.653-40.14-29.542-45.103C376.63,366.841,407.622,366.248,407.622,366.248z"/>
	<g>
		<path fill="#1C75BC" d="M405.458,414.49c0,0-26.77-55.457,41.628-80.139c0,0,23.365,41.596-24.235,71.271
			C417.868,408.73,412.106,411.706,405.458,414.49z"/>
		<path opacity="0.47" fill="#FFFFFF" d="M415.179,373.957c0,0,3.611-21.864,26.973-31.89
			C442.152,342.067,422.101,356.591,415.179,373.957z"/>
	</g>
	<path fill="#662D91" d="M408.952,391.03c0,0,16.471-22.277,6.38-68.675c0,0-19.306,24.405-10.421,57.503
		C405.841,383.324,407.164,387.043,408.952,391.03z"/>
	<g>
		<path fill="#16753F" d="M427.525,436.938c0,0-23.484-40.682-10.592-58.507c0,0,3.085,22.732,12.271,20.463
			c10.327-2.551,9.159-10.579,6.87-18.164c-1.071-3.549-1.521-7.276-1.142-10.975c0.49-4.773,2.332-9.954,7.996-10.13
			c0,0-6.005,8.943,2.3,22.833c2.719,4.548,1.348-29.188,16.304-28.021c0,0-7.514,17.536-0.379,17.598
			c5.486,0.048,5.554-9.824,5.293-14.391c-0.123-2.153,0.692-4.296,2.324-5.69c2.543-2.173,7.516-1.097,15.92-1.235L427.525,436.938
			z"/>
		<path fill="#28B45D" d="M426.972,436.834c0,0,31.262-4.712,29.827-14.178c-1.614-10.642-3.008-10.034,4.772-8.408
			c25.22,5.272,38.584-19.44,36.564-24.818c0,0-11.369,12.937-27.454,10.36c-5.266-0.843,26.554-12.216,19.707-25.804
			c0,0-13.37,13.627-16.177,6.959c-2.158-5.127,6.972-8.895,11.308-10.363c2.044-0.692,3.718-2.261,4.382-4.314
			c1.035-3.2-2.103-7.616-5.213-15.549L426.972,436.834z"/>
	</g>
	<path fill="#662D91" d="M430.338,450.701c0,0,11.966-22.543,55.259-31.117c0,0-12.586,25.787-44.168,30.446
		C438.123,450.517,434.44,450.76,430.338,450.701z"/>
	<g>
		<path fill="#2B3990" d="M438.143,468.73c0,0-28.164-42.638,25.35-70.519C463.493,398.211,480.309,451.899,438.143,468.73z"/>
		<path opacity="0.72" fill="#11113E" d="M461.07,415.226c0,0-5.515,23.682-19.78,31.594l2.39,4.073
			C443.68,450.894,465.082,437.934,461.07,415.226z"/>
	</g>
	<path fill="#662D91" d="M401.204,435.137c0,0-25.481,1.434-55.232-31.166c0,0,28.578-2.583,48.915,22.024
		C397.017,428.572,399.131,431.598,401.204,435.137z"/>
	<g>
		<path fill="#1C75BC" d="M436.532,457.811c0,0-37.518-44.769-83.986-2.018C352.546,455.793,404.973,493.323,436.532,457.811z"/>
		<path opacity="0.5" fill="#FFFFFF" d="M409.807,450.83c0,0-24.24-10.699-50.723,5.556
			C359.083,456.386,384.81,445.783,409.807,450.83z"/>
	</g>
	<g>
		<g>
			<path fill="#692E91" d="M426.944,202.226c-0.597-3.865-9.737-4.332-13.634,3.234c-6.097,11.837,0.296,17.233-12.165,24.701
				c-11.001,6.594-29.974-13.704-51.5,0c-29.868,19.014-0.307,59.931-42.818,53.211c-14.225-2.249,13.742,35.189,14.794,45.95
				c1.018,10.421,20.652,4.145,29.576-5.962c2.92-3.308,5.46-7.286,8.61-10.13c6.902-6.23,14.999-5.688,22.312-5.062
				s5.475,4.188,15.029-1.664c18.592-11.387,10.586-28.925,25.879-40.113c5.679-4.155,10.475-7.398,15.849-10.748
				c5.708-3.558,11.172-8.833,15.083-15.664c3.911-6.832,6.121-15.301,5.212-22.527c-0.458-3.636-1.67-6.857-3.296-9.567
				C449.826,197.8,437.6,195.409,426.944,202.226"/>
		</g>
		<g opacity="0.56">
			<path fill="#FFFFFF" d="M443.325,205.545c-2.615-2.269-5.881-3.139-9.442-2.514c-0.88,0.155-1.861,0.46-2.72,1.581
				c-0.46,0.601-0.836,1.376-1.198,2.137c-0.533,1.119-1.084,2.333-1.227,3.51c-0.086,0.708-0.013,1.335,0.117,1.879
				c0.335,1.402,1.042,2.337,1.881,2.915c0.84,0.577,1.813,0.819,2.794,1.013c2.284,0.452,4.696,0.653,7.313-0.524
				c0.629-0.283,1.277-0.653,1.896-1.294c0.958-0.992,1.79-2.625,2.163-4.247c0.1-0.433,0.169-0.879,0.129-1.242
				C444.973,208.233,445.276,206.374,443.325,205.545"/>
		</g>
		<g opacity="0.56">
			<path fill="#FFFFFF" d="M424.209,206.971c-1.389-1.367-3.186-1.818-5.195-1.306c-0.497,0.127-1.054,0.353-1.57,1.097
				c-0.276,0.398-0.511,0.906-0.738,1.403c-0.333,0.732-0.68,1.525-0.797,2.282c-0.071,0.455-0.05,0.853,0.005,1.197
				c0.143,0.885,0.508,1.46,0.958,1.802c0.451,0.342,0.987,0.466,1.529,0.559c1.262,0.216,2.603,0.268,4.102-0.568
				c0.36-0.201,0.734-0.458,1.101-0.887c0.567-0.664,1.083-1.734,1.344-2.782c0.07-0.28,0.122-0.567,0.111-0.797
				C425.044,208.636,425.273,207.439,424.209,206.971"/>
		</g>
	</g>
	<g>
		<path fill="#546EB5" d="M359.957,319.905c0,0-19.765-45.364,13.541-73.064C373.498,246.841,395.917,287.934,359.957,319.905z"/>
		<path opacity="0.4" fill="#FFFFFF" d="M371.283,255.986c0,0,5.982,30.096-10.788,53.6
			C360.495,309.586,371.486,281.5,371.283,255.986z"/>
		<path opacity="0.4" fill="#FFFFFF" d="M377.27,274.008c0.728,0.141,3.503,16.693-10.085,32.171c0,0-0.807-2.568,0.772-4.516
			C372.224,296.397,376.436,283.674,377.27,274.008z"/>
		<path opacity="0.47" fill="#FFFFFF" d="M363.151,263.316c0,0-5.891,17.803-4.877,32.382"/>
	</g>
	<g>
		<path fill="#1C75BC" d="M370.143,332.287c0,0-21.793-36.805,24.092-57.915c0,0,18.62,27.413-12.576,50.753
			C378.392,327.569,374.58,329.969,370.143,332.287z"/>
		<path opacity="0.47" fill="#FFFFFF" d="M374.484,303.662c0,0,1.212-15.344,16.79-23.659
			C391.274,280.002,378.252,291.235,374.484,303.662z"/>
	</g>
	<g>
		<g>
			<path fill="#0F443F" d="M368.428,325.623c0,0-11.426-1.452-11.925-6.638c-0.499-5.185,9.015,2.919,9.015,2.919
				s-1.054-13.222,1.984-11.569c3.039,1.654,2.558,9.82,2.558,9.82s7.164-11.301,9.344-6.78
				C381.584,317.897,368.428,325.623,368.428,325.623z"/>
		</g>
		<g>
			<path fill="#1FBAAB" d="M363.71,324.59c0,0-4.552-5.926-2.348-10.851c2.204-4.925,6.016,7.107,6.016,7.107
				s5.801-12.451,7.49-9.451s-2.833,10.128-2.833,10.128s11.658-6.639,11.186-1.479c-0.333,3.641-4.963,5.695-9.34,6.139
				C372.054,326.368,363.71,324.59,363.71,324.59z"/>
		</g>
	</g>
	<g>
		<path fill="#28B45D" d="M385.636,373.804c0,0-59.289,48.223-82.844-12.963c0,0,40.883,14.399,40.46,1.692
			c-0.476-14.286-17.942-15.886-28.45-14.877c-4.916,0.472-9.894,0.078-14.605-1.401c-6.08-1.909-13.847-13.458-12.516-20.97
			c0,0,2.292,15.416,22.667,8.148c6.671-2.38-28.408-6.889-22.768-26.292c0,0,20.764,14.546,22.811,5.159
			c1.574-7.218-11.262-9.921-17.28-10.785c-2.837-0.407-5.403-2.049-6.769-4.569c-2.129-3.927,0.897-10.455,3.032-21.567
			L385.636,373.804z"/>
		<path fill="#16753F" d="M385.636,373.804c0,0,20.09-58.547-1.069-78.691c0,0,1.489,30.428-11.055,29.696
			c-14.103-0.824-14.527-11.589-13.379-22.048c0.537-4.893,0.219-9.87-1.174-14.607c-1.798-6.113-7.989-15.291-15.427-14.146
			c0,0,9.333,11.5,5.068,33.232c-1.355,6.905-8.845-37.782-28.09-32.628c0,0,14.068,21.072,4.767,22.885
			c-7.151,1.394-9.637-11.479-10.404-17.504c-0.362-2.841-1.946-5.441-4.415-6.865c-3.847-2.22-10.08,0.392-21.086,2.251
			L385.636,373.804z"/>
	</g>
	<g>
		<path fill="#1C75BC" d="M416.973,412.258c0,0-16.727-59.605-77.347-39.729C339.626,372.528,373.171,431.938,416.973,412.258z"/>
		<path opacity="0.5" fill="#FFFFFF" d="M401.145,392.362c0,0-18.213-21.12-49.466-17.53
			C351.678,374.832,379.931,376.295,401.145,392.362z"/>
	</g>
	<g>
		<path fill="#546EB5" d="M408.907,397.639c0,0-53.342-7.914-41.119-60.954C367.788,336.685,420.564,339.058,408.907,397.639z"/>
		<path opacity="0.4" fill="#FFFFFF" d="M372.421,344.868c0,0,28.35,12.826,29.322,45.623
			C401.743,390.491,391.648,360.913,372.421,344.868z"/>
		<path opacity="0.4" fill="#FFFFFF" d="M391.771,349.993c0.824-0.684,15.908,6.917,14.035,31.219c0,0-2.711-0.78-2.606-3.699
			C403.486,369.624,398.156,357.04,391.771,349.993z"/>
		<path opacity="0.47" fill="#FFFFFF" d="M369.859,358.178c0,0,7.461,17.606,19.334,25.821"/>
	</g>
	<g>
		<g>
			<path fill="#0F443F" d="M411.793,411.314c0,0-27.813,0.796-31.797-11.224c-3.985-12.019,22.903,3.546,22.903,3.546
				s-9.646-30.728-1.565-27.957s11.362,22.166,11.362,22.166s10.832-29.236,18.434-19.4
				C438.732,388.281,411.793,411.314,411.793,411.314z"/>
		</g>
		<g>
			<path fill="#1FBAAB" d="M400.073,410.621c0,0-13.974-12.267-11.424-24.67s18.073,14.508,18.073,14.508s6.985-31.44,12.604-25.004
				c5.619,6.436-1.224,24.878-1.224,24.878s23.983-19.922,25.658-7.604c1.182,8.692-8.66,15.231-18.771,17.891
				C420.771,411.731,400.073,410.621,400.073,410.621z"/>
		</g>
	</g>
	<g>
		<path fill="#2B3990" d="M426.093,465.647c0,0,21.438-62.571-54.666-80.122C371.426,385.525,367.795,458.254,426.093,465.647z"/>
		<path opacity="0.72" fill="#11113E" d="M376.841,392.956c0,0,2.813,34.714,39.23,59.705l-5.045,6.08
			C411.025,458.741,371.914,425.431,376.841,392.956z"/>
	</g>
	<g>
		<path fill="#546EB5" d="M425.391,473.588c0,0-39.229-37.001,1.133-73.518C426.524,400.07,468.458,432.202,425.391,473.588z"/>
		<path opacity="0.4" fill="#FFFFFF" d="M425.644,409.432c0,0,15.919,26.736-2.042,54.195
			C423.602,463.627,432.239,433.591,425.644,409.432z"/>
		<path opacity="0.4" fill="#FFFFFF" d="M438.585,424.703c1.067-0.09,9.092,14.773-6.343,33.636c0,0-1.778-2.191-0.022-4.525
			C436.968,447.507,439.793,434.136,438.585,424.703z"/>
		<path opacity="0.47" fill="#FFFFFF" d="M415.93,418.885c0,0-3.949,18.709,1.091,32.239"/>
	</g>
	<g>
		<path fill="#1C75BC" d="M432.318,472.039c0,0,3.155-47.453,58.506-37.963c0,0-0.16,36.846-43.442,38.636
			C442.85,472.899,437.845,472.702,432.318,472.039z"/>
		<path opacity="0.47" fill="#FFFFFF" d="M449.029,448.714c0,0,10.759-13.309,30.272-11.14
			C479.302,437.573,460.297,439.687,449.029,448.714z"/>
	</g>
	<g>
		<g>
			<path fill="#0F443F" d="M428.667,473.416c0,0-20.089,0.575-22.967-8.107s16.543,2.561,16.543,2.561s-6.968-22.195-1.13-20.193
				c5.837,2.001,8.207,16.01,8.207,16.01s7.824-21.117,13.315-14.012C448.125,456.779,428.667,473.416,428.667,473.416z"/>
		</g>
		<g>
			<path fill="#1FBAAB" d="M420.201,472.915c0,0-10.093-8.86-8.252-17.819c1.841-8.959,13.054,10.479,13.054,10.479
				s5.045-22.709,9.104-18.06c4.058,4.649-0.884,17.969-0.884,17.969s17.323-14.389,18.533-5.492
				c0.854,6.278-6.07,11.948-13.558,12.923C425.68,474.545,420.201,472.915,420.201,472.915z"/>
		</g>
	</g>
	<g display="none">
		<path display="inline" fill="#0F443F" d="M421.875,284.142c0,0,17.503-44.901,39.364-43.145
			c21.861,1.756-21.114,34.14-21.114,34.14s55.525,5.352,45.65,16.373c-9.875,11.021-43.025,3.163-43.025,3.163
			s39.324,37.011,18.503,42.498C440.432,342.659,421.875,284.142,421.875,284.142z"/>
		<path display="inline" fill="#1FBAAB" d="M430.891,265.916c0,0,28.998-14.01,47.062-1.572
			c18.064,12.438-35.341,19.037-35.341,19.037s45.435,32.362,31.376,36.98s-38.857-18.743-38.857-18.743s15.59,51.702-5.189,46.06
			c-14.662-3.981-18.45-24.093-15.869-42.017C415.151,298.182,430.891,265.916,430.891,265.916z"/>
	</g>
	<g display="none">
		<path display="inline" fill="#1C75BC" d="M336.852,129.36c-12.667,4.667-6.446,11.529-2.474,14.677
			c5.925,4.696,10.622,13.69,10.532,22.413c-0.034,3.3-1.261,6.493-2.102,9.71c-2.376,9.086-1.527,19.235,3.349,26.563
			c4.876,7.328,14.045,11.192,22.233,8.257c2.985-1.07,5.939-2.985,8.991-2.616c2.015,0.244,3.758,1.463,5.615,2.286
			c7.51,3.326,17.283-0.674,21.737-8.584s3.338-18.717-2.285-25.022c-1.84-2.063-4.095-3.693-5.65-6.027
			c-3.407-5.114-2.741-12.291-2.059-18.792s1.031-13.782-2.782-18.528c-5.03-6.261-14.939-5.128-20.289-11.057
			c-2.948-3.267-3.948-8.07-5.709-12.277c-1.871-4.469-4.771-8.466-8.661-10.869c-3.891-2.403-9.037-3.493-13.407-2.799
			c-2.346,0.373-6.025,2.392-7.704,4.222c-6.245,6.812-12.296,17.837,0.222,28.296"/>
	</g>
	<g display="none" opacity="0.56">
		<path display="inline" fill="#FFFFFF" d="M348.071,101.577c-1.306,2.065-0.25,5.337,0.119,7.807
			c0.091,0.611,0.27,1.279,0.92,1.786c0.348,0.271,0.797,0.467,1.238,0.654c0.648,0.275,1.351,0.555,2.032,0.549
			c0.41-0.004,0.772-0.113,1.086-0.256c0.81-0.367,1.349-0.954,1.681-1.604s0.47-1.362,0.58-2.076
			c0.257-1.663,0.367-3.394-0.319-5.144c-0.165-0.42-0.381-0.847-0.753-1.227c-0.576-0.589-5.699-2.098-6.174-0.637"/>
	</g>
	<g display="none" opacity="0.56">
		<path display="inline" fill="#FFFFFF" d="M357.293,109.549c-0.787,1.111-1.044,2.429-0.743,3.808
			c0.074,0.341,0.207,0.716,0.638,1.014c0.231,0.159,0.525,0.28,0.813,0.395c0.424,0.169,0.883,0.342,1.321,0.356
			c0.263,0.008,0.493-0.043,0.692-0.114c0.512-0.183,0.843-0.495,1.04-0.846c0.197-0.352,0.267-0.743,0.32-1.137
			c0.122-0.916,0.149-1.873-0.337-2.86c-0.117-0.237-0.266-0.479-0.516-0.7c-0.385-0.341-1.005-0.61-1.612-0.698
			c-0.162-0.024-0.328-0.035-0.461-0.006C358.253,108.803,357.56,108.751,357.293,109.549"/>
	</g>
	<path display="none" fill="#0D4F2E" d="M394.556,263.54c0.159,0.161,0.297,0.326,0.427,0.511
		c3.055,4.339,40.238,59.287,36.684,127.457c-1.291,24.77-4,7.704-4,7.704s3.67-82.148-38.982-129.878
		C372.961,251.737,392.567,261.525,394.556,263.54z"/>
	<g display="none">
		<path display="inline" fill="#1C75BC" d="M537.016,198.876c0,0-47.3-4.95-35.72-59.901c0,0,36.813,1.554,36.963,44.874
			C538.275,188.385,537.889,193.378,537.016,198.876z"/>
		<path display="inline" opacity="0.47" fill="#FFFFFF" d="M514.341,181.294c0,0-12.893-11.255-9.986-30.673
			C504.355,150.621,505.747,169.692,514.341,181.294z"/>
	</g>
	<g>
		<path fill="#692E91" d="M473.636,172.65c-0.269,2.733-1.774,4.89-4.351,6.236c-0.637,0.333-1.426,0.618-2.625,0.323
			c-0.642-0.158-1.337-0.469-2.014-0.778c-0.996-0.454-2.059-0.96-2.848-1.642c-0.475-0.411-0.802-0.847-1.046-1.258
			c-0.627-1.061-0.746-2.005-0.569-2.786c0.177-0.781,0.635-1.413,1.127-2.017c1.145-1.409,2.52-2.72,4.84-3.251
			c0.557-0.127,1.179-0.209,1.944-0.102c1.184,0.164,2.67,0.8,3.867,1.654c0.32,0.228,0.628,0.479,0.819,0.73
			C473.056,170.124,474.35,171.164,473.636,172.65"/>
	</g>
	<g>
		<path fill="#692E91" d="M427.384,142.316c-0.043,1.413-0.81,2.476-2.218,3.074c-0.348,0.148-0.785,0.265-1.477,0.062
			c-0.371-0.108-0.777-0.298-1.174-0.487c-0.583-0.277-1.207-0.583-1.683-0.97c-0.286-0.233-0.49-0.473-0.644-0.698
			c-0.398-0.578-0.504-1.075-0.435-1.474c0.069-0.4,0.304-0.71,0.558-1.006c0.593-0.688,1.32-1.316,2.616-1.499
			c0.311-0.044,0.661-0.061,1.099,0.025c0.678,0.133,1.547,0.524,2.261,1.018c0.191,0.132,0.375,0.275,0.494,0.414
			C426.953,140.977,427.729,141.571,427.384,142.316"/>
	</g>
	<g>
		<path fill="#692E91" d="M434.051,145.501c-0.965-0.294-1.553-1.021-1.701-2.102c-0.037-0.267-0.035-0.59,0.233-1.028
			c0.144-0.235,0.351-0.479,0.555-0.717c0.3-0.35,0.627-0.722,0.983-0.977c0.214-0.153,0.418-0.248,0.601-0.313
			c0.472-0.166,0.834-0.146,1.096-0.024s0.432,0.342,0.588,0.573c0.363,0.537,0.658,1.155,0.542,2.081
			c-0.028,0.222-0.082,0.466-0.223,0.752c-0.219,0.442-0.651,0.967-1.124,1.366c-0.126,0.107-0.259,0.207-0.377,0.263
			C435.053,145.455,434.499,145.878,434.051,145.501"/>
	</g>
	<g>
		<path fill="#692E91" d="M299.685,214.307c1.889-0.591,3.744-0.201,5.363,1.129c0.4,0.329,0.812,0.772,0.954,1.65
			c0.076,0.471,0.065,1.019,0.051,1.555c-0.021,0.789-0.057,1.637-0.287,2.352c-0.138,0.431-0.336,0.771-0.54,1.048
			c-0.527,0.715-1.12,1.06-1.688,1.162s-1.116-0.024-1.656-0.179c-1.257-0.363-2.514-0.905-3.52-2.295
			c-0.242-0.334-0.471-0.724-0.616-1.261c-0.224-0.832-0.221-1.997,0.008-3.031c0.061-0.276,0.141-0.551,0.254-0.749
			C298.172,215.403,298.498,214.251,299.685,214.307"/>
	</g>
	<g>
		<path fill="#692E91" d="M287.361,222.827c1.172,0.162,1.925,0.923,2.177,2.2c0.062,0.316,0.083,0.705-0.207,1.288
			c-0.156,0.313-0.386,0.649-0.613,0.977c-0.334,0.482-0.699,0.997-1.106,1.376c-0.245,0.228-0.481,0.383-0.696,0.498
			c-0.553,0.295-0.986,0.343-1.308,0.247c-0.322-0.095-0.54-0.327-0.742-0.574c-0.47-0.576-0.867-1.264-0.792-2.406
			c0.018-0.274,0.065-0.58,0.214-0.953c0.231-0.577,0.71-1.298,1.247-1.874c0.144-0.154,0.296-0.302,0.432-0.392
			C286.167,223.082,286.799,222.461,287.361,222.827"/>
	</g>
	<g>
		<path fill="#692E91" d="M360.6,433.883c-0.501,4.944-3.226,8.856-7.878,11.306c-1.15,0.606-2.574,1.127-4.733,0.599
			c-1.157-0.283-2.406-0.842-3.625-1.397c-1.792-0.816-3.706-1.725-5.124-2.954c-0.854-0.74-1.441-1.527-1.877-2.27
			c-1.124-1.915-1.332-3.622-1.01-5.036c0.323-1.413,1.153-2.559,2.043-3.656c2.072-2.555,4.557-4.935,8.743-5.908
			c1.005-0.234,2.127-0.384,3.505-0.196c2.132,0.29,4.807,1.432,6.959,2.97c0.575,0.411,1.128,0.863,1.471,1.317
			C359.571,429.317,361.897,431.19,360.6,433.883"/>
	</g>
	<g>
		<path fill="#692E91" d="M328.418,407.962c-2.208,1.508-4.763,1.742-7.384,0.677c-0.648-0.263-1.356-0.669-1.887-1.74
			c-0.285-0.574-0.488-1.282-0.682-1.976c-0.285-1.021-0.575-2.123-0.561-3.133c0.009-0.608,0.129-1.123,0.283-1.56
			c0.399-1.127,1.029-1.804,1.722-2.161s1.453-0.412,2.213-0.427c1.77-0.033,3.611,0.165,5.462,1.55
			c0.445,0.333,0.895,0.742,1.296,1.375c0.62,0.978,1.077,2.475,1.19,3.894c0.03,0.379,0.036,0.764-0.032,1.062
			C329.941,405.955,329.976,407.562,328.418,407.962"/>
	</g>
	<g>
		<path fill="#692E91" d="M490.828,267.266c-0.844,8.323-5.431,14.907-13.261,19.033c-1.936,1.02-4.333,1.897-7.966,1.009
			c-1.947-0.476-4.05-1.416-6.1-2.35c-3.016-1.374-6.236-2.902-8.623-4.971c-1.437-1.245-2.426-2.57-3.159-3.821
			c-1.891-3.224-2.242-6.097-1.699-8.476s1.942-4.307,3.439-6.154c3.488-4.302,7.671-8.308,14.715-9.946
			c1.692-0.394,3.58-0.647,5.899-0.331c3.589,0.488,8.09,2.41,11.712,4.998c0.967,0.691,1.899,1.452,2.476,2.216
			C489.097,259.58,493.011,262.733,490.828,267.266"/>
	</g>
	<g>
		<path fill="#692E91" d="M407.68,169.35c0.897,1.886,0.546,3.763-1.014,5.427c-0.386,0.411-0.916,0.837-2.018,1.001
			c-0.591,0.088-1.287,0.091-1.968,0.09c-1.001-0.001-2.079-0.016-3.004-0.23c-0.557-0.129-1.003-0.318-1.371-0.517
			c-0.947-0.513-1.43-1.101-1.605-1.67c-0.175-0.569-0.057-1.124,0.098-1.671c0.362-1.275,0.952-2.554,2.636-3.601
			c0.405-0.252,0.881-0.492,1.551-0.651c1.037-0.247,2.514-0.273,3.844-0.068c0.355,0.055,0.71,0.128,0.969,0.237
			C406.173,167.855,407.658,168.153,407.68,169.35"/>
	</g>
	<g>
		<path fill="#692E91" d="M326.91,243.804c2.138,1.095,3.13,3.055,2.869,5.665c-0.065,0.645-0.251,1.404-1.142,2.326
			c-0.478,0.494-1.111,0.983-1.733,1.459c-0.915,0.699-1.91,1.439-2.904,1.891c-0.599,0.272-1.139,0.411-1.614,0.486
			c-1.223,0.194-2.076-0.005-2.633-0.402c-0.557-0.397-0.838-0.986-1.079-1.595c-0.561-1.417-0.917-2.997-0.111-5.132
			c0.193-0.513,0.46-1.065,0.961-1.679c0.774-0.95,2.105-2.007,3.462-2.75c0.363-0.198,0.738-0.38,1.051-0.461
			C324.488,243.492,326.053,242.726,326.91,243.804"/>
	</g>
	<g>
		<path fill="#692E91" d="M330.819,230.976c1.512,0.73,2.239,2.083,2.099,3.911c-0.034,0.452-0.152,0.986-0.76,1.645
			c-0.326,0.353-0.76,0.706-1.187,1.048c-0.628,0.504-1.311,1.038-1.998,1.37c-0.414,0.2-0.789,0.306-1.12,0.367
			c-0.852,0.156-1.451,0.031-1.847-0.237s-0.602-0.675-0.781-1.097c-0.416-0.981-0.691-2.08-0.163-3.585
			c0.127-0.362,0.304-0.752,0.643-1.19c0.525-0.677,1.438-1.438,2.374-1.98c0.25-0.145,0.509-0.278,0.727-0.34
			C329.121,230.798,330.202,230.237,330.819,230.976"/>
	</g>
	<g>
		<path fill="#692E91" d="M348.755,199.89c1.8,1.404,2.376,3.41,1.666,5.799c-0.176,0.591-0.485,1.266-1.482,1.967
			c-0.534,0.376-1.213,0.719-1.878,1.052c-0.979,0.489-2.039,1.003-3.048,1.247c-0.607,0.147-1.136,0.18-1.593,0.166
			c-1.177-0.037-1.937-0.375-2.386-0.845c-0.449-0.47-0.606-1.07-0.722-1.681c-0.271-1.423-0.32-2.961,0.812-4.809
			c0.272-0.444,0.62-0.912,1.196-1.396c0.892-0.749,2.323-1.498,3.722-1.949c0.374-0.12,0.756-0.223,1.063-0.243
			C346.55,199.167,348.147,198.732,348.755,199.89"/>
	</g>
	<g>
		<path fill="#692E91" d="M508.439,139.745c-0.11,1.093-0.712,1.956-1.74,2.497c-0.254,0.134-0.569,0.248-1.047,0.131
			c-0.256-0.063-0.533-0.187-0.802-0.31c-0.397-0.181-0.82-0.382-1.135-0.654c-0.189-0.164-0.319-0.338-0.416-0.502
			c-0.249-0.424-0.296-0.801-0.225-1.113c0.071-0.312,0.255-0.565,0.451-0.807c0.458-0.564,1.007-1.089,1.933-1.303
			c0.222-0.051,0.471-0.084,0.776-0.043c0.472,0.065,1.064,0.318,1.541,0.658c0.127,0.091,0.25,0.191,0.326,0.291
			C508.21,138.736,508.725,139.151,508.439,139.745"/>
	</g>
	<g>
		<path fill="#662D91" d="M468.923,128.696c-4.835,0.305-9.278,3.942-10.533,8.621c-0.556,2.075-0.416,4.56,1.165,6.013
			c2.277,2.094,6.113,0.818,8.228-1.439c2.115-2.258,3.288-5.269,5.404-7.525c1.921-2.049,4.491-3.344,6.768-4.988
			c4.052-2.924,7.228-7.046,9.025-11.708c0.286-0.742,0.523-1.631,0.077-2.29c-0.33-0.486-0.939-0.691-1.515-0.81
			c-2.472-0.512-5.144,0.021-7.231,1.442c-3.233,2.201-4.767,6.116-7.256,9.133c-2.18,2.641-1.716,2.667-4.998,3.643"/>
	</g>
	<g>
		<path fill="#692E91" d="M294.67,392.936c-3.379-0.695-6.812,0.975-9.407,1.997c-4.676,1.841-9.915,4.192-12.989,9.581
			c-1.996,3.498-2.826,7.918-5.461,10.69c-2.587,2.722-6.546,3.448-7.936,7.159c-1.135,3.033,0.527,5.653,2.512,6.681
			c3.747,1.94,8.694,0.822,13.227-1.738c4.532-2.56,8.762-6.447,12.932-10.289c3.741-3.447,7.7-7.205,9.814-12.278
			C299.476,399.665,298.59,393.131,294.67,392.936"/>
	</g>
	<g>
		<path fill="#692E91" d="M397.419,140.256c2.886,0.031,5.213-1.342,7.032-2.238c3.279-1.614,6.879-3.592,7.969-7.122
			c0.707-2.291,0.245-4.996,1.65-6.93c1.38-1.899,4.369-2.773,4.535-5.122c0.136-1.92-1.865-3.281-3.718-3.665
			c-3.499-0.725-7.18,0.493-10.16,2.515s-5.38,4.795-7.742,7.533c-2.119,2.457-4.335,5.123-4.735,8.358
			C391.849,136.821,394.226,140.582,397.419,140.256"/>
	</g>
</g>
</svg>
